# xmcd CD database file
#
# Track frame offsets:
#	150
#	13365
#	42386
#	71533
#	84605
#	114702
#	155634
#	164889
#	186564
#	223662
#	233520
#
# Disc length: 3306 seconds
#
# Revision: 0
# Processed by: cddbd v1.5.1PL2 Copyright (c) Steve Scherf et al.
# Submitted via: CDex 1.51
#
DISCID=a40ce80b
DTITLE=Dead Man - Dead Man Plays Dead Man
DYEAR=2006
DGENRE=Jazz
TTITLE0=Dead Man
TTITLE1=Octubre
TTITLE2=Nobody
TTITLE3=Dead Man Part I
TTITLE4=Bipolar
TTITLE5=Luchin
TTITLE6=Dead Man Part II
TTITLE7=Taita
TTITLE8=Manifiesto
TTITLE9=Dead Man Final
TTITLE10=Rey Ricardo
EXTD=YEAR: 2006
EXTT0=
EXTT1=
EXTT2=
EXTT3=
EXTT4=
EXTT5=
EXTT6=
EXTT7=
EXTT8=
EXTT9=
EXTT10=
PLAYORDER=
